<svg xmlns="http://www.w3.org/2000/svg" xmlns:xlink="http://www.w3.org/1999/xlink" width="144" zoomAndPan="magnify" viewBox="0 0 108 107.999999" height="144" preserveAspectRatio="xMidYMid meet" version="1.0"><defs><g/><clipPath id="cce96154f2"><path d="M 43.394531 42.195312 L 105.644531 42.195312 L 105.644531 104.445312 L 43.394531 104.445312 Z M 43.394531 42.195312 " clip-rule="nonzero"/></clipPath><clipPath id="424adede25"><rect x="0" width="95" y="0" height="61"/></clipPath><clipPath id="6cf4a0eb5f"><rect x="0" width="41" y="0" height="92"/></clipPath></defs><g clip-path="url(#cce96154f2)"><path fill="#eff2f7" d="M 74.699219 104.808594 C 74.699219 87.582031 60.621094 73.503906 43.394531 73.503906 C 60.621094 73.503906 74.699219 59.421875 74.699219 42.195312 C 74.699219 59.421875 88.78125 73.503906 106.007812 73.503906 C 88.78125 73.503906 74.699219 87.582031 74.699219 104.808594 Z M 74.699219 104.808594 " fill-opacity="1" fill-rule="nonzero"/></g><g transform="matrix(1, 0, 0, 1, 3, -0.000000000000000835)"><g clip-path="url(#424adede25)"><g fill="#eff2f7" fill-opacity="1"><g transform="translate(0.390755, 42.169066)"><g><path d="M 5.046875 -31.40625 C 5.046875 -34.96875 7.046875 -36.75 11.046875 -36.75 L 11.046875 -32.125 C 10.421875 -31.445312 9.914062 -30.796875 9.53125 -30.171875 L 9.8125 -29.890625 C 11.351562 -32.054688 12.988281 -33.738281 14.71875 -34.9375 C 16.457031 -36.144531 18.457031 -36.75 20.71875 -36.75 C 25.09375 -36.75 28.097656 -34.65625 29.734375 -30.46875 C 32.484375 -34.65625 36.144531 -36.75 40.71875 -36.75 C 44.132812 -36.75 46.765625 -35.601562 48.609375 -33.3125 C 50.460938 -31.03125 51.390625 -28.035156 51.390625 -24.328125 L 51.390625 -3.96875 C 51.390625 -2.382812 50.875 -1.21875 49.84375 -0.46875 C 48.8125 0.28125 47.257812 0.65625 45.1875 0.65625 L 45.1875 -23.96875 C 45.1875 -26.28125 44.703125 -28.082031 43.734375 -29.375 C 42.773438 -30.675781 41.265625 -31.328125 39.203125 -31.328125 C 37.035156 -31.328125 35.179688 -30.59375 33.640625 -29.125 C 32.097656 -27.65625 31.328125 -25.695312 31.328125 -23.25 L 31.328125 -3.96875 C 31.328125 -2.382812 30.820312 -1.21875 29.8125 -0.46875 C 28.800781 0.28125 27.257812 0.65625 25.1875 0.65625 L 25.1875 -23.96875 C 25.1875 -26.28125 24.707031 -28.082031 23.75 -29.375 C 22.789062 -30.675781 21.273438 -31.328125 19.203125 -31.328125 C 16.984375 -31.328125 15.101562 -30.53125 13.5625 -28.9375 C 12.03125 -27.351562 11.265625 -25.40625 11.265625 -23.09375 L 11.265625 -3.96875 C 11.265625 -2.382812 10.742188 -1.21875 9.703125 -0.46875 C 8.671875 0.28125 7.117188 0.65625 5.046875 0.65625 Z M 5.046875 -31.40625 "/></g></g></g><g fill="#eff2f7" fill-opacity="1"><g transform="translate(53.586625, 42.169066)"><g><path d="M 20.28125 0.65625 C 19.5625 0.65625 18.910156 0.460938 18.328125 0.078125 C 17.753906 -0.304688 17.347656 -0.789062 17.109375 -1.375 L 3.25 -36.234375 C 3.539062 -36.378906 3.945312 -36.5 4.46875 -36.59375 C 5 -36.695312 5.484375 -36.75 5.921875 -36.75 C 6.972656 -36.75 7.910156 -36.503906 8.734375 -36.015625 C 9.554688 -35.535156 10.109375 -34.835938 10.390625 -33.921875 L 19.921875 -8.015625 L 18.90625 -5.125 L 19.28125 -4.984375 L 30.109375 -33.921875 C 30.390625 -34.835938 30.9375 -35.535156 31.75 -36.015625 C 32.570312 -36.503906 33.488281 -36.75 34.5 -36.75 C 34.9375 -36.75 35.421875 -36.695312 35.953125 -36.59375 C 36.484375 -36.5 36.914062 -36.378906 37.25 -36.234375 L 23.390625 -1.375 C 23.148438 -0.789062 22.753906 -0.304688 22.203125 0.078125 C 21.648438 0.460938 21.007812 0.65625 20.28125 0.65625 Z M 20.28125 0.65625 "/></g></g></g></g></g><g transform="matrix(1, 0, 0, 1, 3, 16)"><g clip-path="url(#6cf4a0eb5f)"><g fill="#eff2f7" fill-opacity="1"><g transform="translate(0.388236, 75.903136)"><g><path d="M 5.046875 -31.625 C 5.046875 -33.207031 5.539062 -34.457031 6.53125 -35.375 C 7.519531 -36.289062 9.023438 -36.75 11.046875 -36.75 L 11.046875 -32.703125 L 9.59375 -30.828125 L 9.8125 -30.53125 C 11.3125 -32.457031 13.019531 -33.972656 14.9375 -35.078125 C 16.863281 -36.191406 19.148438 -36.75 21.796875 -36.75 C 25.941406 -36.75 29.285156 -35.601562 31.828125 -33.3125 C 34.378906 -31.03125 35.65625 -27.988281 35.65625 -24.1875 L 35.65625 -11.84375 C 35.65625 -8.039062 34.332031 -5.003906 31.6875 -2.734375 C 29.039062 -0.472656 25.601562 0.65625 21.375 0.65625 C 19.101562 0.65625 17.015625 0.1875 15.109375 -0.75 C 13.210938 -1.695312 11.546875 -2.9375 10.109375 -4.46875 L 9.890625 -4.109375 C 10.222656 -3.628906 10.726562 -3.101562 11.40625 -2.53125 L 11.40625 10.171875 C 11.40625 13.453125 9.285156 15.09375 5.046875 15.09375 Z M 20.421875 -4.90625 C 23.265625 -4.90625 25.476562 -5.539062 27.0625 -6.8125 C 28.65625 -8.09375 29.453125 -9.863281 29.453125 -12.125 L 29.453125 -23.890625 C 29.453125 -26.253906 28.65625 -28.0625 27.0625 -29.3125 C 25.476562 -30.5625 23.242188 -31.1875 20.359375 -31.1875 C 17.804688 -31.1875 15.660156 -30.523438 13.921875 -29.203125 C 12.191406 -27.878906 11.328125 -26.226562 11.328125 -24.25 L 11.328125 -11.765625 C 11.328125 -9.835938 12.144531 -8.210938 13.78125 -6.890625 C 15.414062 -5.566406 17.628906 -4.90625 20.421875 -4.90625 Z M 20.421875 -4.90625 "/></g></g></g></g></g></svg>