<svg xmlns="http://www.w3.org/2000/svg" xmlns:xlink="http://www.w3.org/1999/xlink" width="1366" zoomAndPan="magnify" viewBox="0 0 1024.5 576" height="768" preserveAspectRatio="xMidYMid meet" version="1.0"><defs><clipPath id="6ea901caac"><path d="M 516 217 L 672 217 L 672 415 L 516 415 Z M 516 217 " clip-rule="nonzero"/></clipPath><clipPath id="fb3ff3dba8"><path d="M 701.660156 307.40625 L 550.054688 415.003906 L 485.839844 324.53125 L 637.449219 216.929688 Z M 701.660156 307.40625 " clip-rule="nonzero"/></clipPath><clipPath id="d4ac4308d5"><path d="M 701.65625 307.40625 L 549.320312 415.527344 L 485.25 325.25 L 637.585938 217.132812 Z M 701.65625 307.40625 " clip-rule="nonzero"/></clipPath><clipPath id="e3b948d226"><path d="M 671.566406 328.765625 L 550.324219 414.8125 L 516.34375 303.179688 L 637.585938 217.132812 Z M 671.566406 328.765625 " clip-rule="nonzero"/></clipPath><clipPath id="7846c9d054"><path d="M 425 217 L 581 217 L 581 414 L 425 414 Z M 425 217 " clip-rule="nonzero"/></clipPath><clipPath id="cab3f346e7"><path d="M 610.761719 307.949219 L 458.851562 413.816406 L 395.417969 322.792969 L 547.328125 216.925781 Z M 610.761719 307.949219 " clip-rule="nonzero"/></clipPath><clipPath id="345afe21f0"><path d="M 610.757812 307.953125 L 457.496094 414.757812 L 394.203125 323.9375 L 547.464844 217.132812 Z M 610.757812 307.953125 " clip-rule="nonzero"/></clipPath><clipPath id="3e1af0157d"><path d="M 580.480469 329.050781 L 458.699219 413.917969 L 425.683594 302 L 547.464844 217.132812 Z M 580.480469 329.050781 " clip-rule="nonzero"/></clipPath><clipPath id="19097c3458"><path d="M 373 217 L 529 217 L 529 414 L 373 414 Z M 373 217 " clip-rule="nonzero"/></clipPath><clipPath id="fdc346bc75"><path d="M 559.054688 307.949219 L 407.140625 413.816406 L 343.710938 322.792969 L 495.621094 216.925781 Z M 559.054688 307.949219 " clip-rule="nonzero"/></clipPath><clipPath id="5d94f43da5"><path d="M 559.046875 307.953125 L 405.785156 414.757812 L 342.496094 323.9375 L 495.757812 217.132812 Z M 559.046875 307.953125 " clip-rule="nonzero"/></clipPath><clipPath id="81ca4f9f2b"><path d="M 528.773438 329.050781 L 406.992188 413.917969 L 373.976562 302 L 495.757812 217.132812 Z M 528.773438 329.050781 " clip-rule="nonzero"/></clipPath><clipPath id="a6118a1229"><path d="M 346 217 L 501 217 L 501 414 L 346 414 Z M 346 217 " clip-rule="nonzero"/></clipPath><clipPath id="c33f38b286"><path d="M 531.265625 307.949219 L 379.355469 413.816406 L 315.921875 322.792969 L 467.832031 216.925781 Z M 531.265625 307.949219 " clip-rule="nonzero"/></clipPath><clipPath id="f412f1463d"><path d="M 531.261719 307.953125 L 378 414.757812 L 314.707031 323.9375 L 467.96875 217.132812 Z M 531.261719 307.953125 " clip-rule="nonzero"/></clipPath><clipPath id="376d1856f9"><path d="M 500.988281 329.050781 L 379.207031 413.917969 L 346.1875 302 L 467.96875 217.132812 Z M 500.988281 329.050781 " clip-rule="nonzero"/></clipPath><clipPath id="3e36b19bd0"><path d="M 333 217 L 489 217 L 489 414 L 333 414 Z M 333 217 " clip-rule="nonzero"/></clipPath><clipPath id="af37c94708"><path d="M 518.78125 307.949219 L 366.871094 413.816406 L 303.4375 322.792969 L 455.347656 216.925781 Z M 518.78125 307.949219 " clip-rule="nonzero"/></clipPath><clipPath id="28a7b2e1d8"><path d="M 518.777344 307.953125 L 365.515625 414.757812 L 302.222656 323.9375 L 455.484375 217.132812 Z M 518.777344 307.953125 " clip-rule="nonzero"/></clipPath><clipPath id="b6487da3d6"><path d="M 488.503906 329.050781 L 366.722656 413.917969 L 333.703125 302 L 455.484375 217.132812 Z M 488.503906 329.050781 " clip-rule="nonzero"/></clipPath><clipPath id="3953bbbe2c"><path d="M 639 217 L 795 217 L 795 415 L 639 415 Z M 639 217 " clip-rule="nonzero"/></clipPath><clipPath id="aac0554f1c"><path d="M 824.460938 307.40625 L 672.855469 415.003906 L 608.640625 324.53125 L 760.25 216.929688 Z M 824.460938 307.40625 " clip-rule="nonzero"/></clipPath><clipPath id="0b6a1c1406"><path d="M 824.457031 307.40625 L 672.121094 415.527344 L 608.050781 325.25 L 760.386719 217.132812 Z M 824.457031 307.40625 " clip-rule="nonzero"/></clipPath><clipPath id="f3c2e1c489"><path d="M 794.367188 328.765625 L 673.125 414.8125 L 639.144531 303.179688 L 760.386719 217.132812 Z M 794.367188 328.765625 " clip-rule="nonzero"/></clipPath><clipPath id="b656e7c809"><path d="M 327 217 L 483 217 L 483 414 L 327 414 Z M 327 217 " clip-rule="nonzero"/></clipPath><clipPath id="27adbc84c5"><path d="M 512.886719 307.949219 L 360.976562 413.816406 L 297.542969 322.792969 L 449.453125 216.925781 Z M 512.886719 307.949219 " clip-rule="nonzero"/></clipPath><clipPath id="283d035345"><path d="M 512.882812 307.953125 L 359.621094 414.757812 L 296.328125 323.9375 L 449.589844 217.132812 Z M 512.882812 307.953125 " clip-rule="nonzero"/></clipPath><clipPath id="270070dce6"><path d="M 482.605469 329.050781 L 360.824219 413.917969 L 327.808594 302 L 449.589844 217.132812 Z M 482.605469 329.050781 " clip-rule="nonzero"/></clipPath><clipPath id="0c49a2c2e8"><path d="M 783 217 L 939 217 L 939 415 L 783 415 Z M 783 217 " clip-rule="nonzero"/></clipPath><clipPath id="86c437fa90"><path d="M 968.742188 307.40625 L 817.132812 415.003906 L 752.921875 324.53125 L 904.527344 216.929688 Z M 968.742188 307.40625 " clip-rule="nonzero"/></clipPath><clipPath id="ef5495ed9a"><path d="M 968.738281 307.40625 L 816.402344 415.527344 L 752.332031 325.25 L 904.667969 217.132812 Z M 968.738281 307.40625 " clip-rule="nonzero"/></clipPath><clipPath id="152494de25"><path d="M 938.648438 328.765625 L 817.40625 414.8125 L 783.425781 303.179688 L 904.667969 217.132812 Z M 938.648438 328.765625 " clip-rule="nonzero"/></clipPath></defs><g clip-path="url(#6ea901caac)"><g clip-path="url(#fb3ff3dba8)"><g clip-path="url(#d4ac4308d5)"><g clip-path="url(#e3b948d226)"><path stroke-linecap="butt" transform="matrix(-0.611317, 0.433869, -0.433869, -0.611317, 701.659931, 307.404989)" fill="none" stroke-linejoin="miter" d="M 49.229202 -0.00264496 L 247.556949 -0.000412446 L 198.333554 147.674593 L 0.00580665 147.672361 Z M 49.229202 -0.00264496 " stroke="#e36029" stroke-width="8" stroke-opacity="1" stroke-miterlimit="4"/></g></g></g></g><g clip-path="url(#7846c9d054)"><g clip-path="url(#cab3f346e7)"><g clip-path="url(#345afe21f0)"><g clip-path="url(#3e1af0157d)"><path stroke-linecap="butt" transform="matrix(-0.615023, 0.4286, -0.4286, -0.615023, 610.760593, 307.950905)" fill="none" stroke-linejoin="miter" d="M 49.232706 0.00204762 L 247.243387 0.00234378 L 198.017285 147.67107 L 0.00660404 147.670774 Z M 49.232706 0.00204762 " stroke="#e36029" stroke-width="8" stroke-opacity="1" stroke-miterlimit="4"/></g></g></g></g><g clip-path="url(#19097c3458)"><g clip-path="url(#fdc346bc75)"><g clip-path="url(#5d94f43da5)"><g clip-path="url(#81ca4f9f2b)"><path stroke-linecap="butt" transform="matrix(-0.615023, 0.4286, -0.4286, -0.615023, 559.052751, 307.950905)" fill="none" stroke-linejoin="miter" d="M 49.231819 0.00142911 L 247.2425 0.00172527 L 198.016397 147.670452 L 0.0057165 147.670156 Z M 49.231819 0.00142911 " stroke="#e36029" stroke-width="8" stroke-opacity="1" stroke-miterlimit="4"/></g></g></g></g><g clip-path="url(#a6118a1229)"><g clip-path="url(#c33f38b286)"><g clip-path="url(#f412f1463d)"><g clip-path="url(#376d1856f9)"><path stroke-linecap="butt" transform="matrix(-0.615023, 0.4286, -0.4286, -0.615023, 531.265817, 307.950905)" fill="none" stroke-linejoin="miter" d="M 49.229874 0.0000735053 L 247.240554 0.000369672 L 198.018727 147.672076 L 0.00804643 147.671779 Z M 49.229874 0.0000735053 " stroke="#e36029" stroke-width="8" stroke-opacity="1" stroke-miterlimit="4"/></g></g></g></g><g clip-path="url(#3e36b19bd0)"><g clip-path="url(#af37c94708)"><g clip-path="url(#28a7b2e1d8)"><g clip-path="url(#b6487da3d6)"><path stroke-linecap="butt" transform="matrix(-0.615023, 0.4286, -0.4286, -0.615023, 518.781351, 307.950905)" fill="none" stroke-linejoin="miter" d="M 49.229773 0.00000370022 L 247.240454 0.000299867 L 198.018627 147.672006 L 0.00794627 147.67171 Z M 49.229773 0.00000370022 " stroke="#e36029" stroke-width="8" stroke-opacity="1" stroke-miterlimit="4"/></g></g></g></g><g clip-path="url(#3953bbbe2c)"><g clip-path="url(#aac0554f1c)"><g clip-path="url(#0b6a1c1406)"><g clip-path="url(#f3c2e1c489)"><path stroke-linecap="butt" transform="matrix(-0.611317, 0.433869, -0.433869, -0.611317, 824.461657, 307.404989)" fill="none" stroke-linejoin="miter" d="M 49.23023 -0.00191526 L 247.557977 0.000317254 L 198.334582 147.675323 L 0.00683479 147.67309 Z M 49.23023 -0.00191526 " stroke="#e36029" stroke-width="8" stroke-opacity="1" stroke-miterlimit="4"/></g></g></g></g><g clip-path="url(#b656e7c809)"><g clip-path="url(#27adbc84c5)"><g clip-path="url(#283d035345)"><g clip-path="url(#270070dce6)"><path stroke-linecap="butt" transform="matrix(-0.615023, 0.4286, -0.4286, -0.615023, 512.885676, 307.950905)" fill="none" stroke-linejoin="miter" d="M 49.232797 0.00211111 L 247.243478 0.00240727 L 198.017376 147.671134 L 0.00669514 147.670838 Z M 49.232797 0.00211111 " stroke="#e36029" stroke-width="8" stroke-opacity="1" stroke-miterlimit="4"/></g></g></g></g><g clip-path="url(#0c49a2c2e8)"><g clip-path="url(#86c437fa90)"><g clip-path="url(#ef5495ed9a)"><g clip-path="url(#152494de25)"><path stroke-linecap="butt" transform="matrix(-0.611317, 0.433869, -0.433869, -0.611317, 968.741396, 307.404989)" fill="none" stroke-linejoin="miter" d="M 49.228587 -0.00308165 L 247.556334 -0.00084914 L 198.332939 147.674156 L 0.00519135 147.671924 Z M 49.228587 -0.00308165 " stroke="#e36029" stroke-width="8" stroke-opacity="1" stroke-miterlimit="4"/></g></g></g></g></svg>